<svg id="Camada_1" data-name="Camada 1" xmlns="http://www.w3.org/2000/svg" viewBox="0 0 255.11811 340.15748">
  <defs>
    <style>
      .cls-1 {
        fill: #dadada;
      }

      .cls-2, .cls-7, .cls-8 {
        fill: #fff;
      }

      .cls-3 {
        fill: #cb181a;
      }

      .cls-4 {
        fill: #e30613;
      }

      .cls-5 {
        fill: #1d1d1b;
      }

      .cls-5, .cls-6, .cls-7, .cls-8 {
        stroke: #1d1d1b;
        stroke-width: 6px;
      }

      .cls-5, .cls-6, .cls-8 {
        stroke-miterlimit: 10;
      }

      .cls-6 {
        fill: none;
      }

      .cls-7 {
        stroke-linecap: round;
        stroke-linejoin: round;
      }
    </style>
  </defs>
  <path class="cls-1" d="M32.57087,12.57874H168.689l79.37008,79.37008V302.06693a25.51182,25.51182,0,0,1-25.51182,25.51181H32.57087A25.51181,25.51181,0,0,1,7.05906,302.06693V38.09055A25.51181,25.51181,0,0,1,32.57087,12.57874Z"/>
  <path class="cls-2" d="M44.25485,12.57874H168.27809l79.37007,79.37008V302.06693a25.51181,25.51181,0,0,1-25.51181,25.51181H44.25485A25.51181,25.51181,0,0,1,18.743,302.06693V38.09055A25.51181,25.51181,0,0,1,44.25485,12.57874Z"/>
  <path class="cls-3" d="M248.05906,229.97106v73.67461a25.51182,25.51182,0,0,1-25.51182,25.51181H32.57087A25.51181,25.51181,0,0,1,7.05906,303.64567V230.2126Z"/>
  <path class="cls-4" d="M248.05906,228.63386v73.67461c0,14.08978-10.86828,25.51181-24.275,25.51181H43.018c-13.4067,0-24.275-11.422-24.275-25.51181V228.8754Z"/>
  <g>
    <path class="cls-5" d="M103.431,284.94733c0-10.96.081-21.44042.32519-27.04h-.24414c-2.27832,7.51953-13.83594,35.12011-21.07959,52.80078h-4.314c-5.45313-13.68067-17.41749-44.40137-20.022-52.88086H57.934c.40673,6.39941.56933,19.44043.56933,29.04v23.84082h-4.395v-56.001H60.701c7.81348,19.2002,17.66163,44.32031,19.77784,50.64063H80.642c1.30176-4.08008,12.69678-32.001,20.67285-50.64063h6.51172v56.001H103.431Z"/>
    <path class="cls-5" d="M124.58825,254.7071h20.34766c10.418,0,17.58008,5.67969,17.58008,15.59961,0,10.08105-7.08106,16.001-18.15039,16.001H129.06481v24.40039h-4.47656Zm4.47656,27.60059h15.708c9.19727,0,13.02246-4.80078,13.02246-11.84082,0-7.51954-5.0459-11.75977-12.69726-11.75977H129.06481Z"/>
    <path class="cls-5" d="M195.31481,310.70808V295.98737H169.514v-3.91992l25.71973-34.001h4.23242v34.08105h7.24317l-.56934,3.83984h-6.67383v14.72071Zm0-34.48047c0-2.96.08106-9.52051.16309-13.041-2.19824,3.84082-14.97656,20.56055-21.16211,28.96094h20.999Z"/>
  </g>
  <path class="cls-6" d="M32.57087,12.57874H168.689l79.37008,79.37008V302.06693a25.51182,25.51182,0,0,1-25.51182,25.51181H32.57087A25.51181,25.51181,0,0,1,7.05906,302.06693V38.09055A25.51181,25.51181,0,0,1,32.57087,12.57874Z"/>
  <line class="cls-6" x1="7.05906" y1="228.13386" x2="248.05906" y2="229.13386"/>
  <circle class="cls-3" cx="127.55906" cy="126.68176" r="70.86621"/>
  <ellipse class="cls-4" cx="133.88613" cy="126.68176" rx="64.53913" ry="70.86621"/>
  <circle class="cls-6" cx="127.98209" cy="126.68176" r="70.86621"/>
  <polygon class="cls-7" points="174.564 128.8 138.816 149.44 103.068 170.079 103.068 128.801 103.068 87.522 138.816 108.161 174.564 128.8"/>
  <path class="cls-8" d="M159.05906,13.31555H168.689l79.37008,79.37008v9.62992H178.90157A19.84251,19.84251,0,0,1,159.05906,82.473Z"/>
</svg>
