<svg id="Camada_1" data-name="Camada 1" xmlns="http://www.w3.org/2000/svg" viewBox="0 0 255.11811 340.15748">
  <defs>
    <style>
      .cls-1 {
        fill: #dadada;
      }

      .cls-2, .cls-4 {
        fill: #fff;
      }

      .cls-3 {
        fill: none;
      }

      .cls-3, .cls-4 {
        stroke: #1d1d1b;
        stroke-miterlimit: 10;
        stroke-width: 6px;
      }

      .cls-5 {
        font-size: 90px;
        fill: #335da8;
        font-family: ArialRoundedMTBold, Arial Rounded MT Bold;
      }
    </style>
  </defs>
  <path class="cls-1" d="M32.57087,12.57874H168.689l79.37008,79.37008V302.06693a25.51182,25.51182,0,0,1-25.51182,25.51181H32.57087A25.51181,25.51181,0,0,1,7.05906,302.06693V38.09055A25.51181,25.51181,0,0,1,32.57087,12.57874Z"/>
  <path class="cls-2" d="M44.25485,12.57874H168.27809l79.37007,79.37008V302.06693a25.51181,25.51181,0,0,1-25.51181,25.51181H44.25485A25.51181,25.51181,0,0,1,18.743,302.06693V38.09055A25.51181,25.51181,0,0,1,44.25485,12.57874Z"/>
  <path class="cls-3" d="M32.57087,12.57874H168.689l79.37008,79.37008V302.06693a25.51182,25.51182,0,0,1-25.51182,25.51181H32.57087A25.51181,25.51181,0,0,1,7.05906,302.06693V38.09055A25.51181,25.51181,0,0,1,32.57087,12.57874Z"/>
  <path class="cls-4" d="M159.05906,13.31555H168.689l79.37008,79.37008v9.62992H178.90157A19.84251,19.84251,0,0,1,159.05906,82.473Z"/>
  <text class="cls-5" transform="translate(27.71532 199.46636)">PNG</text>
</svg>
