<svg id="Camada_1" data-name="Camada 1" xmlns="http://www.w3.org/2000/svg" viewBox="0 0 409.54455 238.45545">
  <defs>
    <style>
      .cls-1 {
        fill: #d4657d;
      }

      .cls-1, .cls-2, .cls-3 {
        stroke: #1d1d1b;
        stroke-linejoin: round;
        stroke-width: 5px;
      }

      .cls-2 {
        fill: #f6a560;
      }

      .cls-3 {
        fill: none;
        stroke-linecap: round;
      }

      .cls-4 {
        fill: #e8e8e7;
      }
    </style>
  </defs>
  <polygon class="cls-1" points="286.287 86.866 225.455 154.549 210.248 116.529 286.287 86.866"/>
  <polygon class="cls-2" points="204.545 150.549 209.772 113.955 184.584 91.143 286.287 86.866 204.545 150.549"/>
  <line class="cls-3" x1="278.20792" y1="90.29703" x2="238.50908" y2="105.50416"/>
  <line class="cls-3" x1="226.99196" y1="108.95623" x2="210.9" y2="114.35249"/>
  <path class="cls-3" d="M184.58416,129.57624c-12.15039,5.25871-16.60174,7.62026-21.74258,8.35427-5.9476.84921-11.262.70909-16.2772-1.7008-5.02984-2.4169-8.71907-7.08484-9.505-8.07922a32.63885,32.63885,0,0,1-2.99815-4.54614,26.38057,26.38057,0,0,1-2.95859-7.43432,22.39085,22.39085,0,0,1,.37258-12.40567,15.54851,15.54851,0,0,1,7.0099-9.35642,21.11632,21.11632,0,0,1,11.40594-2.85151,16.62,16.62,0,0,1,9.9802,3.32676,17.28782,17.28782,0,0,1,4.75247,19.48513,17.638,17.638,0,0,1-7.60394,8.0792,23.47631,23.47631,0,0,1-9.98023,3.32675c-8.92793.85092-18.93622-3.49213-23.28711-10.9307-1.33676-2.2854-3.89945-7.75567-3.89945-7.75567s-2.6055-8.72948-1.83323-13.83839c.5093-3.3692,1.47089-7.28607,3-8.65545"/>
  <path class="cls-3" d="M126.74354,76.625a16.26544,16.26544,0,0,1,8.37623-5.43564"/>
  <path class="cls-4" d="M274.72277,208.04957c0,4.71864-46.96061,8.36567-77.39556,8.36567s-77.39555-3.647-77.39555-8.36567,46.96061-8.54387,77.39555-8.54387S274.72277,203.33092,274.72277,208.04957Z"/>
</svg>
